<svg xmlns:xlink="http://www.w3.org/1999/xlink" width="71.042ex" height="2.843ex" style="font-size: 15px; vertical-align: -0.838ex;" viewBox="0 -863.1 30587.4 1223.9" role="img" focusable="false" xmlns="http://www.w3.org/2000/svg">
<defs>
<path stroke-width="1" id="E1-MJMAIN-7B" d="M434 -231Q434 -244 428 -250H410Q281 -250 230 -184Q225 -177 222 -172T217 -161T213 -148T211 -133T210 -111T209 -84T209 -47T209 0Q209 21 209 53Q208 142 204 153Q203 154 203 155Q189 191 153 211T82 231Q71 231 68 234T65 250T68 266T82 269Q116 269 152 289T203 345Q208 356 208 377T209 529V579Q209 634 215 656T244 698Q270 724 324 740Q361 748 377 749Q379 749 390 749T408 750H428Q434 744 434 732Q434 719 431 716Q429 713 415 713Q362 710 332 689T296 647Q291 634 291 499V417Q291 370 288 353T271 314Q240 271 184 255L170 250L184 245Q202 239 220 230T262 196T290 137Q291 131 291 1Q291 -134 296 -147Q306 -174 339 -192T415 -213Q429 -213 431 -216Q434 -219 434 -231Z"></path>
<path stroke-width="1" id="E1-MJMAIN-28" d="M94 250Q94 319 104 381T127 488T164 576T202 643T244 695T277 729T302 750H315H319Q333 750 333 741Q333 738 316 720T275 667T226 581T184 443T167 250T184 58T225 -81T274 -167T316 -220T333 -241Q333 -250 318 -250H315H302L274 -226Q180 -141 137 -14T94 250Z"></path>
<path stroke-width="1" id="E1-MJMAIN-34" d="M462 0Q444 3 333 3Q217 3 199 0H190V46H221Q241 46 248 46T265 48T279 53T286 61Q287 63 287 115V165H28V211L179 442Q332 674 334 675Q336 677 355 677H373L379 671V211H471V165H379V114Q379 73 379 66T385 54Q393 47 442 46H471V0H462ZM293 211V545L74 212L183 211H293Z"></path>
<path stroke-width="1" id="E1-MJMAIN-2C" d="M78 35T78 60T94 103T137 121Q165 121 187 96T210 8Q210 -27 201 -60T180 -117T154 -158T130 -185T117 -194Q113 -194 104 -185T95 -172Q95 -168 106 -156T131 -126T157 -76T173 -3V9L172 8Q170 7 167 6T161 3T152 1T140 0Q113 0 96 17Z"></path>
<path stroke-width="1" id="E1-MJMAIN-30" d="M96 585Q152 666 249 666Q297 666 345 640T423 548Q460 465 460 320Q460 165 417 83Q397 41 362 16T301 -15T250 -22Q224 -22 198 -16T137 16T82 83Q39 165 39 320Q39 494 96 585ZM321 597Q291 629 250 629Q208 629 178 597Q153 571 145 525T137 333Q137 175 145 125T181 46Q209 16 250 16Q290 16 318 46Q347 76 354 130T362 333Q362 478 354 524T321 597Z"></path>
<path stroke-width="1" id="E1-MJMAIN-2B" d="M56 237T56 250T70 270H369V420L370 570Q380 583 389 583Q402 583 409 568V270H707Q722 262 722 250T707 230H409V-68Q401 -82 391 -82H389H387Q375 -82 369 -68V230H70Q56 237 56 250Z"></path>
<path stroke-width="1" id="E1-MJMAIN-36" d="M42 313Q42 476 123 571T303 666Q372 666 402 630T432 550Q432 525 418 510T379 495Q356 495 341 509T326 548Q326 592 373 601Q351 623 311 626Q240 626 194 566Q147 500 147 364L148 360Q153 366 156 373Q197 433 263 433H267Q313 433 348 414Q372 400 396 374T435 317Q456 268 456 210V192Q456 169 451 149Q440 90 387 34T253 -22Q225 -22 199 -14T143 16T92 75T56 172T42 313ZM257 397Q227 397 205 380T171 335T154 278T148 216Q148 133 160 97T198 39Q222 21 251 21Q302 21 329 59Q342 77 347 104T352 209Q352 289 347 316T329 361Q302 397 257 397Z"></path>
<path stroke-width="1" id="E1-MJMAIN-32" d="M109 429Q82 429 66 447T50 491Q50 562 103 614T235 666Q326 666 387 610T449 465Q449 422 429 383T381 315T301 241Q265 210 201 149L142 93L218 92Q375 92 385 97Q392 99 409 186V189H449V186Q448 183 436 95T421 3V0H50V19V31Q50 38 56 46T86 81Q115 113 136 137Q145 147 170 174T204 211T233 244T261 278T284 308T305 340T320 369T333 401T340 431T343 464Q343 527 309 573T212 619Q179 619 154 602T119 569T109 550Q109 549 114 549Q132 549 151 535T170 489Q170 464 154 447T109 429Z"></path>
<path stroke-width="1" id="E1-MJMAIN-29" d="M60 749L64 750Q69 750 74 750H86L114 726Q208 641 251 514T294 250Q294 182 284 119T261 12T224 -76T186 -143T145 -194T113 -227T90 -246Q87 -249 86 -250H74Q66 -250 63 -250T58 -247T55 -238Q56 -237 66 -225Q221 -64 221 250T66 725Q56 737 55 738Q55 746 60 749Z"></path>
<path stroke-width="1" id="E1-MJMAIN-31" d="M213 578L200 573Q186 568 160 563T102 556H83V602H102Q149 604 189 617T245 641T273 663Q275 666 285 666Q294 666 302 660V361L303 61Q310 54 315 52T339 48T401 46H427V0H416Q395 3 257 3Q121 3 100 0H88V46H114Q136 46 152 46T177 47T193 50T201 52T207 57T213 61V578Z"></path>
<path stroke-width="1" id="E1-MJMAIN-33" d="M127 463Q100 463 85 480T69 524Q69 579 117 622T233 665Q268 665 277 664Q351 652 390 611T430 522Q430 470 396 421T302 350L299 348Q299 347 308 345T337 336T375 315Q457 262 457 175Q457 96 395 37T238 -22Q158 -22 100 21T42 130Q42 158 60 175T105 193Q133 193 151 175T169 130Q169 119 166 110T159 94T148 82T136 74T126 70T118 67L114 66Q165 21 238 21Q293 21 321 74Q338 107 338 175V195Q338 290 274 322Q259 328 213 329L171 330L168 332Q166 335 166 348Q166 366 174 366Q202 366 232 371Q266 376 294 413T322 525V533Q322 590 287 612Q265 626 240 626Q208 626 181 615T143 592T132 580H135Q138 579 143 578T153 573T165 566T175 555T183 540T186 520Q186 498 172 481T127 463Z"></path>
<path stroke-width="1" id="E1-MJMAIN-37" d="M55 458Q56 460 72 567L88 674Q88 676 108 676H128V672Q128 662 143 655T195 646T364 644H485V605L417 512Q408 500 387 472T360 435T339 403T319 367T305 330T292 284T284 230T278 162T275 80Q275 66 275 52T274 28V19Q270 2 255 -10T221 -22Q210 -22 200 -19T179 0T168 40Q168 198 265 368Q285 400 349 489L395 552H302Q128 552 119 546Q113 543 108 522T98 479L95 458V455H55V458Z"></path>
</defs>
<g stroke="currentColor" fill="currentColor" stroke-width="0" transform="matrix(1 0 0 -1 0 0)">
 <use xlink:href="#E1-MJMAIN-7B" x="0" y="0"></use>
 <use xlink:href="#E1-MJMAIN-28" x="500" y="0"></use>
 <use xlink:href="#E1-MJMAIN-34" x="890" y="0"></use>
 <use xlink:href="#E1-MJMAIN-2C" x="1390" y="0"></use>
 <use xlink:href="#E1-MJMAIN-30" x="1835" y="0"></use>
 <use xlink:href="#E1-MJMAIN-2B" x="2558" y="0"></use>
 <use xlink:href="#E1-MJMAIN-36" x="3559" y="0"></use>
 <use xlink:href="#E1-MJMAIN-2C" x="4059" y="0"></use>
 <use xlink:href="#E1-MJMAIN-30" x="4504" y="0"></use>
 <use xlink:href="#E1-MJMAIN-2B" x="5227" y="0"></use>
<g transform="translate(6228,0)">
 <use xlink:href="#E1-MJMAIN-32"></use>
 <use xlink:href="#E1-MJMAIN-32" x="500" y="0"></use>
</g>
 <use xlink:href="#E1-MJMAIN-29" x="7229" y="0"></use>
 <use xlink:href="#E1-MJMAIN-2C" x="7618" y="0"></use>
 <use xlink:href="#E1-MJMAIN-28" x="8063" y="0"></use>
 <use xlink:href="#E1-MJMAIN-34" x="8453" y="0"></use>
 <use xlink:href="#E1-MJMAIN-2C" x="8953" y="0"></use>
 <use xlink:href="#E1-MJMAIN-31" x="9399" y="0"></use>
 <use xlink:href="#E1-MJMAIN-2B" x="10121" y="0"></use>
 <use xlink:href="#E1-MJMAIN-36" x="11122" y="0"></use>
 <use xlink:href="#E1-MJMAIN-2C" x="11623" y="0"></use>
 <use xlink:href="#E1-MJMAIN-31" x="12068" y="0"></use>
 <use xlink:href="#E1-MJMAIN-2B" x="12790" y="0"></use>
<g transform="translate(13791,0)">
 <use xlink:href="#E1-MJMAIN-32"></use>
 <use xlink:href="#E1-MJMAIN-32" x="500" y="0"></use>
</g>
 <use xlink:href="#E1-MJMAIN-29" x="14792" y="0"></use>
 <use xlink:href="#E1-MJMAIN-2C" x="15182" y="0"></use>
 <use xlink:href="#E1-MJMAIN-28" x="15627" y="0"></use>
 <use xlink:href="#E1-MJMAIN-34" x="16016" y="0"></use>
 <use xlink:href="#E1-MJMAIN-2C" x="16517" y="0"></use>
 <use xlink:href="#E1-MJMAIN-32" x="16962" y="0"></use>
 <use xlink:href="#E1-MJMAIN-2B" x="17685" y="0"></use>
 <use xlink:href="#E1-MJMAIN-36" x="18685" y="0"></use>
 <use xlink:href="#E1-MJMAIN-2C" x="19186" y="0"></use>
 <use xlink:href="#E1-MJMAIN-36" x="19631" y="0"></use>
 <use xlink:href="#E1-MJMAIN-2B" x="20354" y="0"></use>
<g transform="translate(21355,0)">
 <use xlink:href="#E1-MJMAIN-32"></use>
 <use xlink:href="#E1-MJMAIN-32" x="500" y="0"></use>
</g>
 <use xlink:href="#E1-MJMAIN-29" x="22356" y="0"></use>
 <use xlink:href="#E1-MJMAIN-2C" x="22745" y="0"></use>
 <use xlink:href="#E1-MJMAIN-28" x="23190" y="0"></use>
 <use xlink:href="#E1-MJMAIN-34" x="23580" y="0"></use>
 <use xlink:href="#E1-MJMAIN-2C" x="24080" y="0"></use>
 <use xlink:href="#E1-MJMAIN-33" x="24525" y="0"></use>
 <use xlink:href="#E1-MJMAIN-2B" x="25248" y="0"></use>
 <use xlink:href="#E1-MJMAIN-36" x="26249" y="0"></use>
 <use xlink:href="#E1-MJMAIN-2C" x="26749" y="0"></use>
 <use xlink:href="#E1-MJMAIN-37" x="27194" y="0"></use>
 <use xlink:href="#E1-MJMAIN-2B" x="27917" y="0"></use>
<g transform="translate(28918,0)">
 <use xlink:href="#E1-MJMAIN-32"></use>
 <use xlink:href="#E1-MJMAIN-32" x="500" y="0"></use>
</g>
 <use xlink:href="#E1-MJMAIN-29" x="29919" y="0"></use>
 <use xlink:href="#E1-MJMAIN-2C" x="30308" y="0"></use>
</g>
</svg>