<svg xmlns:xlink="http://www.w3.org/1999/xlink" width="18.784ex" height="2.843ex" style="font-size: 15px; vertical-align: -0.838ex;" viewBox="0 -863.1 8087.5 1223.9" role="img" focusable="false" xmlns="http://www.w3.org/2000/svg">
<defs>
<path stroke-width="1" id="E1-MJMAINB-50" d="M400 0Q376 3 226 3Q75 3 51 0H39V62H147V624H39V686H253Q435 686 470 685T536 678Q585 668 621 648T675 605T705 557T718 514T721 483T718 451T704 409T673 362T616 322T530 293Q500 288 399 287H304V62H412V0H400ZM553 475Q553 554 537 582T459 622Q451 623 373 624H298V343H372Q457 344 480 350Q527 362 540 390T553 475Z"></path>
<path stroke-width="1" id="E1-MJMAINB-28" d="M103 166T103 251T121 412T165 541T225 639T287 708T341 750H356H361Q382 750 382 736Q382 732 365 714T323 661T274 576T232 439T214 250Q214 -62 381 -229Q382 -231 382 -234Q382 -249 360 -249H356H341Q314 -231 287 -207T226 -138T165 -41T121 89Z"></path>
<path stroke-width="1" id="E1-MJMAINB-69" d="M72 610Q72 649 98 672T159 695Q193 693 217 670T241 610Q241 572 217 549T157 525Q120 525 96 548T72 610ZM46 442L136 446L226 450H232V62H294V0H286Q271 3 171 3Q67 3 49 0H40V62H109V209Q109 358 108 362Q103 380 55 380H43V442H46Z"></path>
<path stroke-width="1" id="E1-MJMAINB-2212" d="M119 221Q96 230 96 251T116 279Q121 281 448 281H775Q776 280 779 278T785 274T791 269T795 262T797 251Q797 230 775 221H119Z"></path>
<path stroke-width="1" id="E1-MJMAINB-31" d="M481 0L294 3Q136 3 109 0H96V62H227V304Q227 546 225 546Q169 529 97 529H80V591H97Q231 591 308 647L319 655H333Q355 655 359 644Q361 640 361 351V62H494V0H481Z"></path>
<path stroke-width="1" id="E1-MJMAINB-2C" d="M74 85Q74 120 97 145T159 171Q200 171 226 138Q258 101 258 37Q258 -5 246 -44T218 -109T183 -155T152 -184T135 -194Q129 -194 118 -183T106 -164Q106 -157 115 -149Q121 -145 130 -137T161 -100T195 -35Q197 -28 200 -17T204 3T205 11T199 9T183 3T159 0Q120 0 97 26T74 85Z"></path>
<path stroke-width="1" id="E1-MJMAINB-57" d="M915 686L1052 683Q1142 683 1157 686H1164V624H1073L957 320Q930 249 900 170T855 52T839 10Q834 0 826 -5Q821 -7 799 -7H792Q777 -7 772 -5T759 10Q759 11 748 39T716 122T676 228L594 442L512 228Q486 159 455 78Q433 19 428 9T416 -5Q411 -7 389 -7H379Q356 -7 349 10Q349 12 334 51T288 170T231 320L116 624H24V686H35Q44 683 183 683Q331 683 355 686H368V624H323Q278 624 278 623L437 207L499 369L561 531L526 624H434V686H445Q454 683 593 683Q741 683 765 686H778V624H733Q688 624 688 623L847 207Q848 207 927 415T1006 624H905V686H915Z"></path>
<path stroke-width="1" id="E1-MJMAINB-77" d="M624 444Q636 441 722 441Q797 441 800 444H805V382H741L593 11Q592 10 590 8T586 4T584 2T581 0T579 -2T575 -3T571 -3T567 -4T561 -4T553 -4H542Q525 -4 518 6T490 70Q474 110 463 137L415 257L367 137Q357 111 341 72Q320 17 313 7T289 -4H277Q259 -4 253 -2T238 11L90 382H25V444H32Q47 441 140 441Q243 441 261 444H270V382H222L310 164L382 342L366 382H303V444H310Q322 441 407 441Q508 441 523 444H531V382H506Q481 382 481 380Q482 376 529 259T577 142L674 382H617V444H624Z"></path>
<path stroke-width="1" id="E1-MJMAINB-29" d="M231 251Q231 354 214 439T173 575T123 661T81 714T64 735Q64 744 73 749H75Q77 749 79 749T84 750T90 750H105Q132 732 159 708T220 639T281 542T325 413T343 251T325 89T281 -40T221 -138T159 -207T105 -249H90Q80 -249 76 -249T68 -245T64 -234Q64 -230 81 -212T123 -160T172 -75T214 61T231 251Z"></path>
</defs>
<g stroke="currentColor" fill="currentColor" stroke-width="0" transform="matrix(1 0 0 -1 0 0)">
 <use xlink:href="#E1-MJMAINB-50" x="0" y="0"></use>
 <use xlink:href="#E1-MJMAINB-28" x="786" y="0"></use>
 <use xlink:href="#E1-MJMAINB-69" x="1234" y="0"></use>
 <use xlink:href="#E1-MJMAINB-2212" x="1775" y="0"></use>
 <use xlink:href="#E1-MJMAINB-31" x="2892" y="0"></use>
 <use xlink:href="#E1-MJMAINB-2C" x="3467" y="0"></use>
 <use xlink:href="#E1-MJMAINB-57" x="3954" y="0"></use>
 <use xlink:href="#E1-MJMAINB-2212" x="5365" y="0"></use>
<g transform="translate(6482,0)">
 <use xlink:href="#E1-MJMAINB-77" x="0" y="0"></use>
 <use transform="scale(0.707)" xlink:href="#E1-MJMAINB-69" x="1175" y="-213"></use>
</g>
 <use xlink:href="#E1-MJMAINB-29" x="7639" y="0"></use>
</g>
</svg>