<svg xmlns:xlink="http://www.w3.org/1999/xlink" width="40.239ex" height="3.343ex" style="font-size: 15px; vertical-align: -1.171ex;" viewBox="0 -934.9 17324.9 1439.2" role="img" focusable="false" xmlns="http://www.w3.org/2000/svg">
<defs>
<path stroke-width="1" id="E1-MJMAIN-201C" d="M128 494Q128 528 137 560T158 616T185 658T209 685T223 694T236 685T245 670Q244 668 231 654T204 622T178 571T164 501Q164 489 165 489T170 491T183 497T201 500Q226 500 244 483T262 440T245 397T202 379Q173 379 151 405T128 494ZM332 494Q332 528 341 560T362 616T389 658T413 685T427 694T439 685T449 672Q449 669 437 656T411 625T383 573T368 501Q368 489 369 489T374 491T387 497T405 500Q430 500 448 483T466 440T449 397T406 379Q377 379 355 405T332 494Z"></path>
<path stroke-width="1" id="E1-MJMAIN-201D" d="M34 634Q34 659 50 676T93 694Q121 694 144 668T168 579Q168 525 146 476T101 403T73 379Q69 379 60 388T50 401Q50 404 62 417T88 448T116 500T131 572Q131 584 130 584T125 581T112 576T94 573Q69 573 52 590T34 634ZM238 634Q238 659 254 676T297 694Q325 694 348 668T372 579Q372 525 350 476T305 403T277 379Q273 379 264 388T254 401Q254 404 266 417T292 448T320 500T335 572Q335 584 334 584T329 581T316 576T298 573Q273 573 256 590T238 634Z"></path>
<path stroke-width="1" id="E1-MJMAIN-2264" d="M674 636Q682 636 688 630T694 615T687 601Q686 600 417 472L151 346L399 228Q687 92 691 87Q694 81 694 76Q694 58 676 56H670L382 192Q92 329 90 331Q83 336 83 348Q84 359 96 365Q104 369 382 500T665 634Q669 636 674 636ZM84 -118Q84 -108 99 -98H678Q694 -104 694 -118Q694 -130 679 -138H98Q84 -131 84 -118Z"></path>
<path stroke-width="1" id="E1-MJMATHI-6E" d="M21 287Q22 293 24 303T36 341T56 388T89 425T135 442Q171 442 195 424T225 390T231 369Q231 367 232 367L243 378Q304 442 382 442Q436 442 469 415T503 336T465 179T427 52Q427 26 444 26Q450 26 453 27Q482 32 505 65T540 145Q542 153 560 153Q580 153 580 145Q580 144 576 130Q568 101 554 73T508 17T439 -10Q392 -10 371 17T350 73Q350 92 386 193T423 345Q423 404 379 404H374Q288 404 229 303L222 291L189 157Q156 26 151 16Q138 -11 108 -11Q95 -11 87 -5T76 7T74 17Q74 30 112 180T152 343Q153 348 153 366Q153 405 129 405Q91 405 66 305Q60 285 60 284Q58 278 41 278H27Q21 284 21 287Z"></path>
<path stroke-width="1" id="E1-MJMAIN-28" d="M94 250Q94 319 104 381T127 488T164 576T202 643T244 695T277 729T302 750H315H319Q333 750 333 741Q333 738 316 720T275 667T226 581T184 443T167 250T184 58T225 -81T274 -167T316 -220T333 -241Q333 -250 318 -250H315H302L274 -226Q180 -141 137 -14T94 250Z"></path>
<path stroke-width="1" id="E1-MJMATHI-43" d="M50 252Q50 367 117 473T286 641T490 704Q580 704 633 653Q642 643 648 636T656 626L657 623Q660 623 684 649Q691 655 699 663T715 679T725 690L740 705H746Q760 705 760 698Q760 694 728 561Q692 422 692 421Q690 416 687 415T669 413H653Q647 419 647 422Q647 423 648 429T650 449T651 481Q651 552 619 605T510 659Q484 659 454 652T382 628T299 572T226 479Q194 422 175 346T156 222Q156 108 232 58Q280 24 350 24Q441 24 512 92T606 240Q610 253 612 255T628 257Q648 257 648 248Q648 243 647 239Q618 132 523 55T319 -22Q206 -22 128 53T50 252Z"></path>
<path stroke-width="1" id="E1-MJMAIN-2B" d="M56 237T56 250T70 270H369V420L370 570Q380 583 389 583Q402 583 409 568V270H707Q722 262 722 250T707 230H409V-68Q401 -82 391 -82H389H387Q375 -82 369 -68V230H70Q56 237 56 250Z"></path>
<path stroke-width="1" id="E1-MJMAIN-31" d="M213 578L200 573Q186 568 160 563T102 556H83V602H102Q149 604 189 617T245 641T273 663Q275 666 285 666Q294 666 302 660V361L303 61Q310 54 315 52T339 48T401 46H427V0H416Q395 3 257 3Q121 3 100 0H88V46H114Q136 46 152 46T177 47T193 50T201 52T207 57T213 61V578Z"></path>
<path stroke-width="1" id="E1-MJMAIN-29" d="M60 749L64 750Q69 750 74 750H86L114 726Q208 641 251 514T294 250Q294 182 284 119T261 12T224 -76T186 -143T145 -194T113 -227T90 -246Q87 -249 86 -250H74Q66 -250 63 -250T58 -247T55 -238Q56 -237 66 -225Q221 -64 221 250T66 725Q56 737 55 738Q55 746 60 749Z"></path>
<path stroke-width="1" id="E1-MJMAIN-3D" d="M56 347Q56 360 70 367H707Q722 359 722 347Q722 336 708 328L390 327H72Q56 332 56 347ZM56 153Q56 168 72 173H708Q722 163 722 153Q722 140 707 133H70Q56 140 56 153Z"></path>
<path stroke-width="1" id="E1-MJMATHI-4F" d="M740 435Q740 320 676 213T511 42T304 -22Q207 -22 138 35T51 201Q50 209 50 244Q50 346 98 438T227 601Q351 704 476 704Q514 704 524 703Q621 689 680 617T740 435ZM637 476Q637 565 591 615T476 665Q396 665 322 605Q242 542 200 428T157 216Q157 126 200 73T314 19Q404 19 485 98T608 313Q637 408 637 476Z"></path>
</defs>
<g stroke="currentColor" fill="currentColor" stroke-width="0" transform="matrix(1 0 0 -1 0 0)">
 <use xlink:href="#E1-MJMAIN-201C" x="0" y="0"></use>
<g transform="translate(500,0)">
<text font-family="monospace" stroke="none" transform="scale(71.759) matrix(1 0 0 -1 0 0)">蓝</text>
</g>
<g transform="translate(1648,0)">
<text font-family="monospace" stroke="none" transform="scale(71.759) matrix(1 0 0 -1 0 0)">色</text>
</g>
<g transform="translate(2796,0)">
<text font-family="monospace" stroke="none" transform="scale(71.759) matrix(1 0 0 -1 0 0)">格</text>
</g>
<g transform="translate(3944,0)">
<text font-family="monospace" stroke="none" transform="scale(71.759) matrix(1 0 0 -1 0 0)">子</text>
</g>
 <use xlink:href="#E1-MJMAIN-201D" x="5093" y="0"></use>
<g transform="translate(5593,0)">
<text font-family="monospace" stroke="none" transform="scale(71.759) matrix(1 0 0 -1 0 0)">数</text>
</g>
<g transform="translate(6741,0)">
<text font-family="monospace" stroke="none" transform="scale(71.759) matrix(1 0 0 -1 0 0)">目</text>
</g>
 <use xlink:href="#E1-MJMAIN-2264" x="8167" y="0"></use>
 <use xlink:href="#E1-MJMATHI-6E" x="9223" y="0"></use>
 <use xlink:href="#E1-MJMAIN-28" x="9824" y="0"></use>
 <use xlink:href="#E1-MJMATHI-43" x="10213" y="0"></use>
 <use xlink:href="#E1-MJMAIN-2B" x="11196" y="0"></use>
 <use xlink:href="#E1-MJMAIN-31" x="12197" y="0"></use>
 <use xlink:href="#E1-MJMAIN-29" x="12697" y="0"></use>
 <use xlink:href="#E1-MJMAIN-3D" x="13365" y="0"></use>
 <use xlink:href="#E1-MJMATHI-4F" x="14421" y="0"></use>
 <use xlink:href="#E1-MJMAIN-28" x="15184" y="0"></use>
 <use xlink:href="#E1-MJMATHI-6E" x="15574" y="0"></use>
 <use xlink:href="#E1-MJMATHI-43" x="16174" y="0"></use>
 <use xlink:href="#E1-MJMAIN-29" x="16935" y="0"></use>
</g>
</svg>