<svg xmlns="http://www.w3.org/2000/svg" xmlns:xlink="http://www.w3.org/1999/xlink" id="processonSvg1000" viewBox="132.44691827648495 105.99999999999997 772.7652879482273 765.0" width="772.7652879482273" height="765.0"><defs id="ProcessOnDefs1001"><marker id="ProcessOnMarker1137" markerUnits="userSpaceOnUse" orient="auto" markerWidth="16.23606797749979" markerHeight="10.550836550532098" viewBox="-1.0 -1.3763819204711736 16.23606797749979 10.550836550532098" refX="-1.0" refY="3.8990363547948754"><path id="ProcessOnPath1138" d="M12.0 3.8990363547948754L0.0 7.798072709589751V0.0Z" stroke="#323232" stroke-width="2.0" fill="#323232" transform="matrix(1.0,0.0,0.0,1.0,0.0,0.0)"/></marker><marker id="ProcessOnMarker1141" markerUnits="userSpaceOnUse" orient="auto" markerWidth="16.23606797749979" markerHeight="10.550836550532098" viewBox="-1.0 -1.3763819204711736 16.23606797749979 10.550836550532098" refX="-1.0" refY="3.8990363547948754"><path id="ProcessOnPath1142" d="M12.0 3.8990363547948754L0.0 7.798072709589751V0.0Z" stroke="#323232" stroke-width="2.0" fill="#323232" transform="matrix(1.0,0.0,0.0,1.0,0.0,0.0)"/></marker><marker id="ProcessOnMarker1145" markerUnits="userSpaceOnUse" orient="auto" markerWidth="16.23606797749979" markerHeight="10.550836550532098" viewBox="-1.0 -1.3763819204711736 16.23606797749979 10.550836550532098" refX="-1.0" refY="3.8990363547948754"><path id="ProcessOnPath1146" d="M12.0 3.8990363547948754L0.0 7.798072709589751V0.0Z" stroke="#323232" stroke-width="2.0" fill="#323232" transform="matrix(1.0,0.0,0.0,1.0,0.0,0.0)"/></marker></defs><g id="ProcessOnG1002"><path id="ProcessOnPath1003" d="M132.44691827648495 105.99999999999997H905.2122062247122V871.0H132.4469182764849V106.0Z" fill="#ffffff"/><g id="ProcessOnG1004"><g id="ProcessOnG1005" transform="matrix(1.0,0.0,0.0,1.0,263.2122062247121,722.5152089227224)" opacity="1.0"><path id="ProcessOnPath1006" d="M0.0 4.0Q0.0 0.0 4.0 0.0L618.0000000000001 0.0Q622.0000000000001 0.0 622.0000000000001 4.0L622.0000000000001 124.48479107727758Q622.0000000000001 128.48479107727758 618.0000000000001 128.48479107727758L4.0 128.48479107727758Q0.0 128.48479107727758 0.0 124.48479107727758Z" stroke="#323232" stroke-width="2.0" stroke-dasharray="none" opacity="1.0" fill="#9999ff"/></g><g id="ProcessOnG1007" transform="matrix(1.0,0.0,0.0,1.0,185.42449544842435,693.7016574585634)" opacity="1.0"><path id="ProcessOnPath1008" d="M0.0 10.384878600859436L690.5530817235151 10.384878600859436" stroke="#888888" stroke-width="1.0" stroke-dasharray="5.0 2.0" opacity="1.0" fill="none"/><path id="ProcessOnPath1009" d="M0.0 0.0L690.5530817235151 0.0L690.5530817235151 20.76975720171887L0.0 20.76975720171887Z" stroke="#888888" stroke-width="0.0" stroke-dasharray="0.0 0.0" opacity="1.0" fill="none"/></g><g id="ProcessOnG1010" transform="matrix(1.0,0.0,0.0,1.0,182.44691827648495,369.2302427982811)" opacity="1.0"><path id="ProcessOnPath1011" d="M0.0 10.384878600859436L690.5530817235151 10.384878600859436" stroke="#888888" stroke-width="1.0" stroke-dasharray="5.0 2.0" opacity="1.0" fill="none"/><path id="ProcessOnPath1012" d="M0.0 0.0L690.5530817235151 0.0L690.5530817235151 20.76975720171887L0.0 20.76975720171887Z" stroke="#888888" stroke-width="0.0" stroke-dasharray="0.0 0.0" opacity="1.0" fill="none"/></g><g id="ProcessOnG1013" transform="matrix(1.0,0.0,0.0,1.0,182.44691827648495,185.2302427982811)" opacity="1.0"><path id="ProcessOnPath1014" d="M0.0 10.384878600859436L690.5530817235151 10.384878600859436" stroke="#888888" stroke-width="1.0" stroke-dasharray="5.0 2.0" opacity="1.0" fill="none"/><path id="ProcessOnPath1015" d="M0.0 0.0L690.5530817235151 0.0L690.5530817235151 20.76975720171887L0.0 20.76975720171887Z" stroke="#888888" stroke-width="0.0" stroke-dasharray="0.0 0.0" opacity="1.0" fill="none"/></g><g id="ProcessOnG1016" transform="matrix(1.0,0.0,0.0,1.0,263.2122062247121,125.99999999999997)" opacity="1.0"><path id="ProcessOnPath1017" d="M0.0 4.0Q0.0 0.0 4.0 0.0L272.4141342923342 0.0Q276.4141342923342 0.0 276.4141342923342 4.0L276.4141342923342 45.0Q276.4141342923342 49.0 272.4141342923342 49.0L4.0 49.0Q0.0 49.0 0.0 45.0Z" stroke="#323232" stroke-width="2.0" stroke-dasharray="none" opacity="1.0" fill="#99ffcc"/><g id="ProcessOnG1018" transform="matrix(1.0,0.0,0.0,1.0,10.0,16.375)"><text id="ProcessOnText1019" fill="#000000" font-weight="normal" font-style="normal" text-decoration="none" font-family="微软雅黑" text-anchor="middle" font-size="13" x="127.2070671461671" y="13.325">APP</text></g></g><g id="ProcessOnG1020" transform="matrix(1.0,0.0,0.0,1.0,263.2122062247121,304.0)" opacity="1.0"><path id="ProcessOnPath1021" d="M0.0 4.0Q0.0 0.0 4.0 0.0L618.0000000000001 0.0Q622.0000000000001 0.0 622.0000000000001 4.0L622.0000000000001 48.09322426792039Q622.0000000000001 52.09322426792039 618.0000000000001 52.09322426792039L4.0 52.09322426792039Q0.0 52.09322426792039 0.0 48.09322426792039Z" stroke="#323232" stroke-width="2.0" stroke-dasharray="none" opacity="1.0" fill="#99ff99"/><g id="ProcessOnG1022" transform="matrix(1.0,0.0,0.0,1.0,10.0,17.921612133960195)"><text id="ProcessOnText1023" fill="#000000" font-weight="normal" font-style="normal" text-decoration="none" font-family="微软雅黑" text-anchor="middle" font-size="13" x="300.00000000000006" y="13.325">协议层(HTTP协议转RPC协议)</text></g></g><g id="ProcessOnG1024" transform="matrix(1.0,0.0,0.0,1.0,152.44691827648495,523.7576044613613)" opacity="1.0"><path id="ProcessOnPath1025" d="M0.0 0.0L92.92024962397035 0.0L92.92024962397035 42.18644853584079L0.0 42.18644853584079Z" stroke="#323232" stroke-width="0.0" stroke-dasharray="none" opacity="1.0" fill="none"/><g id="ProcessOnG1026" transform="matrix(1.0,0.0,0.0,1.0,0.0,12.968224267920395)"><text id="ProcessOnText1027" fill="#000000" font-weight="normal" font-style="normal" text-decoration="none" font-family="微软雅黑" text-anchor="middle" font-size="13" x="45.460124811985175" y="13.325">业务层</text></g></g><g id="ProcessOnG1028" transform="matrix(1.0,0.0,0.0,1.0,152.44691827648495,303.9067757320796)" opacity="1.0"><path id="ProcessOnPath1029" d="M0.0 0.0L92.92024962397035 0.0L92.92024962397035 42.18644853584079L0.0 42.18644853584079Z" stroke="#323232" stroke-width="0.0" stroke-dasharray="none" opacity="1.0" fill="none"/><g id="ProcessOnG1030" transform="matrix(1.0,0.0,0.0,1.0,0.0,12.968224267920395)"><text id="ProcessOnText1031" fill="#000000" font-weight="normal" font-style="normal" text-decoration="none" font-family="微软雅黑" text-anchor="middle" font-size="13" x="45.460124811985175" y="13.325">协议层</text></g></g><g id="ProcessOnG1032" transform="matrix(1.0,0.0,0.0,1.0,152.44691827648495,129.40677573207958)" opacity="1.0"><path id="ProcessOnPath1033" d="M0.0 0.0L92.92024962397035 0.0L92.92024962397035 42.18644853584079L0.0 42.18644853584079Z" stroke="#323232" stroke-width="0.0" stroke-dasharray="none" opacity="1.0" fill="none"/><g id="ProcessOnG1034" transform="matrix(1.0,0.0,0.0,1.0,0.0,12.968224267920395)"><text id="ProcessOnText1035" fill="#000000" font-weight="normal" font-style="normal" text-decoration="none" font-family="微软雅黑" text-anchor="middle" font-size="13" x="45.460124811985175" y="13.325">用户层</text></g></g><g id="ProcessOnG1036" transform="matrix(1.0,0.0,0.0,1.0,182.44691827648495,265.2302427982811)" opacity="1.0"><path id="ProcessOnPath1037" d="M0.0 10.384878600859436L690.5530817235151 10.384878600859436" stroke="#888888" stroke-width="1.0" stroke-dasharray="5.0 2.0" opacity="1.0" fill="none"/><path id="ProcessOnPath1038" d="M0.0 0.0L690.5530817235151 0.0L690.5530817235151 20.76975720171887L0.0 20.76975720171887Z" stroke="#888888" stroke-width="0.0" stroke-dasharray="0.0 0.0" opacity="1.0" fill="none"/></g><g id="ProcessOnG1039" transform="matrix(1.0,0.0,0.0,1.0,152.44691827648495,219.52189713122013)" opacity="1.0"><path id="ProcessOnPath1040" d="M0.0 0.0L92.92024962397034 0.0L92.92024962397034 36.47810286877987L0.0 36.47810286877987Z" stroke="#323232" stroke-width="0.0" stroke-dasharray="none" opacity="1.0" fill="none"/><g id="ProcessOnG1041" transform="matrix(1.0,0.0,0.0,1.0,0.0,10.114051434389935)"><text id="ProcessOnText1042" fill="#000000" font-weight="normal" font-style="normal" text-decoration="none" font-family="微软雅黑" text-anchor="middle" font-size="13" x="45.46012481198517" y="13.325">网关层</text></g></g><g id="ProcessOnG1043" transform="matrix(1.0,0.0,0.0,1.0,263.2122062247121,211.99999999999997)" opacity="1.0"><path id="ProcessOnPath1044" d="M0.0 4.0Q0.0 0.0 4.0 0.0L272.4141342923342 0.0Q276.4141342923342 0.0 276.4141342923342 4.0L276.4141342923342 43.00000000000006Q276.4141342923342 47.00000000000006 272.4141342923342 47.00000000000006L4.0 47.00000000000006Q0.0 47.00000000000006 0.0 43.00000000000006Z" stroke="#323232" stroke-width="2.0" stroke-dasharray="none" opacity="1.0" fill="#ffcc99"/><g id="ProcessOnG1045" transform="matrix(1.0,0.0,0.0,1.0,10.0,15.375000000000028)"><text id="ProcessOnText1046" fill="#000000" font-weight="normal" font-style="normal" text-decoration="none" font-family="微软雅黑" text-anchor="middle" font-size="13" x="127.2070671461671" y="13.325">API网关</text></g></g><g id="ProcessOnG1047" transform="matrix(1.0,0.0,0.0,1.0,158.4469182764849,771.6643801934409)" opacity="1.0"><path id="ProcessOnPath1048" d="M0.0 0.0L92.92024962397035 0.0L92.92024962397035 42.18644853584079L0.0 42.18644853584079Z" stroke="#323232" stroke-width="0.0" stroke-dasharray="none" opacity="1.0" fill="none"/><g id="ProcessOnG1049" transform="matrix(1.0,0.0,0.0,1.0,0.0,12.968224267920395)"><text id="ProcessOnText1050" fill="#000000" font-weight="normal" font-style="normal" text-decoration="none" font-family="微软雅黑" text-anchor="middle" font-size="13" x="45.460124811985175" y="13.325">数据库</text></g></g><g id="ProcessOnG1051" transform="matrix(-1.8369701987210297E-16,-1.0,1.0,-1.8369701987210297E-16,347.50958630079,828.1159899752416)" opacity="1.0"><path id="ProcessOnPath1052" d="M12.407515654164136 0.0L73.64241578573709 0.0C85.1915951846765 0.0 85.1915951846765 54.44613145214299 73.64241578573709 54.44613145214299L12.407515654164136 54.44613145214299C-4.135838551388046 54.44613145214299 -4.135838551388046 0.0 12.407515654164136 0.0ZM73.64241578573709 0.0C62.29947173320729 0.0 62.29947173320729 54.44613145214299 73.64241578573709 54.44613145214299C62.29947173320729 54.44613145214299 62.29947173320729 0.0 73.64241578573709 0.0" stroke="#323232" stroke-width="2.0" stroke-dasharray="none" opacity="1.0" fill="#cfcfcf"/><g id="ProcessOnG1053" transform="matrix(1.0,0.0,0.0,1.0,0.0,19.098065726071496)"><text id="ProcessOnText1054" fill="#000000" font-weight="normal" font-style="normal" text-decoration="none" font-family="微软雅黑" text-anchor="middle" font-size="13" x="32.08670841110437" y="13.325">My SQL</text></g></g><g id="ProcessOnG1055" transform="matrix(1.0,0.0,0.0,1.0,743.0,398.0)" opacity="1.0"><path id="ProcessOnPath1056" d="M0.0 4.0Q0.0 0.0 4.0 0.0L138.2122062247122 0.0Q142.2122062247122 0.0 142.2122062247122 4.0L142.2122062247122 281.7016574585633Q142.2122062247122 285.7016574585633 138.2122062247122 285.7016574585633L4.0 285.7016574585633Q0.0 285.7016574585633 0.0 281.7016574585633Z" stroke="#323232" stroke-width="2.0" stroke-dasharray="none" opacity="1.0" fill="#ff9999"/><g id="ProcessOnG1057" transform="matrix(1.0,0.0,0.0,1.0,10.0,134.72582872928166)"><text id="ProcessOnText1058" fill="#000000" font-weight="normal" font-style="normal" text-decoration="none" font-family="微软雅黑" text-anchor="middle" font-size="13" x="60.106103112356095" y="13.325">基础服务</text></g></g><g id="ProcessOnG1059" transform="matrix(-1.8369701987210297E-16,-1.0,1.0,-1.8369701987210297E-16,553.4779705841104,828.1159899752416)" opacity="1.0"><path id="ProcessOnPath1060" d="M12.407515654164136 0.0L73.64241578573709 0.0C85.1915951846765 0.0 85.1915951846765 54.44613145214299 73.64241578573709 54.44613145214299L12.407515654164136 54.44613145214299C-4.135838551388046 54.44613145214299 -4.135838551388046 0.0 12.407515654164136 0.0ZM73.64241578573709 0.0C62.29947173320729 0.0 62.29947173320729 54.44613145214299 73.64241578573709 54.44613145214299C62.29947173320729 54.44613145214299 62.29947173320729 0.0 73.64241578573709 0.0" stroke="#323232" stroke-width="2.0" stroke-dasharray="none" opacity="1.0" fill="#cfcfcf"/><g id="ProcessOnG1061" transform="matrix(1.0,0.0,0.0,1.0,0.0,19.098065726071496)"><text id="ProcessOnText1062" fill="#000000" font-weight="normal" font-style="normal" text-decoration="none" font-family="微软雅黑" text-anchor="middle" font-size="13" x="32.08670841110437" y="13.325">My SQL</text></g></g><g id="ProcessOnG1063" transform="matrix(-1.8369701987210297E-16,-1.0,1.0,-1.8369701987210297E-16,753.491200523552,824.1159899752416)" opacity="1.0"><path id="ProcessOnPath1064" d="M12.407515654164136 0.0L73.64241578573709 0.0C85.1915951846765 0.0 85.1915951846765 54.44613145214299 73.64241578573709 54.44613145214299L12.407515654164136 54.44613145214299C-4.135838551388046 54.44613145214299 -4.135838551388046 0.0 12.407515654164136 0.0ZM73.64241578573709 0.0C62.29947173320729 0.0 62.29947173320729 54.44613145214299 73.64241578573709 54.44613145214299C62.29947173320729 54.44613145214299 62.29947173320729 0.0 73.64241578573709 0.0" stroke="#323232" stroke-width="2.0" stroke-dasharray="none" opacity="1.0" fill="#cfcfcf"/><g id="ProcessOnG1065" transform="matrix(1.0,0.0,0.0,1.0,0.0,19.098065726071496)"><text id="ProcessOnText1066" fill="#000000" font-weight="normal" font-style="normal" text-decoration="none" font-family="微软雅黑" text-anchor="middle" font-size="13" x="32.08670841110437" y="13.325">Mongo</text></g></g><g id="ProcessOnG1067" transform="matrix(1.0,0.0,0.0,1.0,629.2699990327974,125.99999999999997)" opacity="1.0"><path id="ProcessOnPath1068" d="M0.0 4.0Q0.0 0.0 4.0 0.0L247.7300009672026 0.0Q251.7300009672026 0.0 251.7300009672026 4.0L251.7300009672026 45.0Q251.7300009672026 49.0 247.7300009672026 49.0L4.0 49.0Q0.0 49.0 0.0 45.0Z" stroke="#323232" stroke-width="2.0" stroke-dasharray="none" opacity="1.0" fill="#99ffcc"/><g id="ProcessOnG1069" transform="matrix(1.0,0.0,0.0,1.0,10.0,16.375)"><text id="ProcessOnText1070" fill="#000000" font-weight="normal" font-style="normal" text-decoration="none" font-family="微软雅黑" text-anchor="middle" font-size="13" x="114.8650004836013" y="13.325">　HTML5(Angular)</text></g></g><g id="ProcessOnG1071" transform="matrix(1.0,0.0,0.0,1.0,263.2122062247121,395.9999999999998)" opacity="1.0"><path id="ProcessOnPath1072" d="M0.0 4.0Q0.0 0.0 4.0 0.0L177.7877937752878 0.0Q181.7877937752878 0.0 181.7877937752878 4.0L181.7877937752878 135.70165745856377Q181.7877937752878 139.70165745856377 177.7877937752878 139.70165745856377L4.0 139.70165745856377Q0.0 139.70165745856377 0.0 135.70165745856377Z" stroke="#323232" stroke-width="2.0" stroke-dasharray="none" opacity="1.0" fill="#cce5ff"/><g id="ProcessOnG1073" transform="matrix(1.0,0.0,0.0,1.0,10.0,61.725828729281886)"><text id="ProcessOnText1074" fill="#000000" font-weight="normal" font-style="normal" text-decoration="none" font-family="微软雅黑" text-anchor="middle" font-size="13" x="79.8938968876439" y="13.325">APP服务</text></g></g><g id="ProcessOnG1075" transform="matrix(1.0,0.0,0.0,1.0,298.3761021451534,412.61377504741483)" opacity="1.0"><path id="ProcessOnPath1076" d="M0.0 0.0L111.46000193440527 0.0L111.46000193440527 36.474107363733765L0.0 36.474107363733765Z" stroke="#323232" stroke-width="2.0" stroke-dasharray="none" opacity="1.0" fill="#ffffff"/><g id="ProcessOnG1077" transform="matrix(1.0,0.0,0.0,1.0,10.0,10.112053681866882)"><text id="ProcessOnText1078" fill="#000000" font-weight="normal" font-style="normal" text-decoration="none" font-family="微软雅黑" text-anchor="middle" font-size="13" x="44.730000967202635" y="13.325">用户服务</text></g></g><g id="ProcessOnG1079" transform="matrix(1.0,0.0,0.0,1.0,298.37610214515337,482.61377504741483)" opacity="1.0"><path id="ProcessOnPath1080" d="M0.0 0.0L111.46000193440527 0.0L111.46000193440527 36.474107363733765L0.0 36.474107363733765Z" stroke="#323232" stroke-width="2.0" stroke-dasharray="none" opacity="1.0" fill="#ffffff"/><g id="ProcessOnG1081" transform="matrix(1.0,0.0,0.0,1.0,10.0,10.112053681866882)"><text id="ProcessOnText1082" fill="#000000" font-weight="normal" font-style="normal" text-decoration="none" font-family="微软雅黑" text-anchor="middle" font-size="13" x="44.730000967202635" y="13.325">设备服务</text></g></g><g id="ProcessOnG1083" transform="matrix(1.0,0.0,0.0,1.0,263.2122062247121,553.9999999999998)" opacity="1.0"><path id="ProcessOnPath1084" d="M0.0 4.0Q0.0 0.0 4.0 0.0L177.7877937752878 0.0Q181.7877937752878 0.0 181.7877937752878 4.0L181.7877937752878 125.70165745856355Q181.7877937752878 129.70165745856355 177.7877937752878 129.70165745856355L4.0 129.70165745856355Q0.0 129.70165745856355 0.0 125.70165745856355Z" stroke="#323232" stroke-width="2.0" stroke-dasharray="none" opacity="1.0" fill="#cce5ff"/><g id="ProcessOnG1085" transform="matrix(1.0,0.0,0.0,1.0,10.0,56.72582872928177)"><text id="ProcessOnText1086" fill="#000000" font-weight="normal" font-style="normal" text-decoration="none" font-family="微软雅黑" text-anchor="middle" font-size="13" x="79.8938968876439" y="13.325">内容服务</text></g></g><g id="ProcessOnG1087" transform="matrix(1.0,0.0,0.0,1.0,471.2122062247122,398.0)" opacity="1.0"><path id="ProcessOnPath1088" d="M0.0 4.0Q0.0 0.0 4.0 0.0L250.7877937752878 0.0Q254.7877937752878 0.0 254.7877937752878 4.0L254.7877937752878 131.70165745856332Q254.7877937752878 135.70165745856332 250.7877937752878 135.70165745856332L4.0 135.70165745856332Q0.0 135.70165745856332 0.0 131.70165745856332Z" stroke="#323232" stroke-width="2.0" stroke-dasharray="none" opacity="1.0" fill="#cce5ff"/><g id="ProcessOnG1089" transform="matrix(1.0,0.0,0.0,1.0,10.0,59.72582872928166)"><text id="ProcessOnText1090" fill="#000000" font-weight="normal" font-style="normal" text-decoration="none" font-family="微软雅黑" text-anchor="middle" font-size="13" x="116.3938968876439" y="13.325">电商服务</text></g></g><g id="ProcessOnG1091" transform="matrix(1.0,0.0,0.0,1.0,478.3761021451534,412.61377504741483)" opacity="1.0"><path id="ProcessOnPath1092" d="M0.0 0.0L111.46000193440527 0.0L111.46000193440527 36.474107363733765L0.0 36.474107363733765Z" stroke="#323232" stroke-width="2.0" stroke-dasharray="none" opacity="1.0" fill="#ffffff"/><g id="ProcessOnG1093" transform="matrix(1.0,0.0,0.0,1.0,10.0,10.112053681866882)"><text id="ProcessOnText1094" fill="#000000" font-weight="normal" font-style="normal" text-decoration="none" font-family="微软雅黑" text-anchor="middle" font-size="13" x="44.730000967202635" y="13.325">商品服务</text></g></g><g id="ProcessOnG1095" transform="matrix(1.0,0.0,0.0,1.0,608.3761021451535,412.61377504741483)" opacity="1.0"><path id="ProcessOnPath1096" d="M0.0 0.0L111.46000193440527 0.0L111.46000193440527 36.474107363733765L0.0 36.474107363733765Z" stroke="#323232" stroke-width="2.0" stroke-dasharray="none" opacity="1.0" fill="#ffffff"/><g id="ProcessOnG1097" transform="matrix(1.0,0.0,0.0,1.0,10.0,10.112053681866882)"><text id="ProcessOnText1098" fill="#000000" font-weight="normal" font-style="normal" text-decoration="none" font-family="微软雅黑" text-anchor="middle" font-size="13" x="44.730000967202635" y="13.325">购物车服务</text></g></g><g id="ProcessOnG1099" transform="matrix(1.0,0.0,0.0,1.0,478.3761021451534,482.61377504741483)" opacity="1.0"><path id="ProcessOnPath1100" d="M0.0 0.0L111.46000193440527 0.0L111.46000193440527 36.474107363733765L0.0 36.474107363733765Z" stroke="#323232" stroke-width="2.0" stroke-dasharray="none" opacity="1.0" fill="#ffffff"/><g id="ProcessOnG1101" transform="matrix(1.0,0.0,0.0,1.0,10.0,10.112053681866882)"><text id="ProcessOnText1102" fill="#000000" font-weight="normal" font-style="normal" text-decoration="none" font-family="微软雅黑" text-anchor="middle" font-size="13" x="44.730000967202635" y="13.325">订单服务</text></g></g><g id="ProcessOnG1103" transform="matrix(1.0,0.0,0.0,1.0,608.3761021451535,482.61377504741483)" opacity="1.0"><path id="ProcessOnPath1104" d="M0.0 0.0L111.46000193440527 0.0L111.46000193440527 36.474107363733765L0.0 36.474107363733765Z" stroke="#323232" stroke-width="2.0" stroke-dasharray="none" opacity="1.0" fill="#ffffff"/><g id="ProcessOnG1105" transform="matrix(1.0,0.0,0.0,1.0,10.0,10.112053681866882)"><text id="ProcessOnText1106" fill="#000000" font-weight="normal" font-style="normal" text-decoration="none" font-family="微软雅黑" text-anchor="middle" font-size="13" x="44.730000967202635" y="13.325">优惠服务</text></g></g><g id="ProcessOnG1107" transform="matrix(1.0,0.0,0.0,1.0,471.2122062247122,553.9999999999999)" opacity="1.0"><path id="ProcessOnPath1108" d="M0.0 4.0Q0.0 0.0 4.0 0.0L250.7877937752878 0.0Q254.7877937752878 0.0 254.7877937752878 4.0L254.7877937752878 125.70165745856343Q254.7877937752878 129.70165745856343 250.7877937752878 129.70165745856343L4.0 129.70165745856343Q0.0 129.70165745856343 0.0 125.70165745856343Z" stroke="#323232" stroke-width="2.0" stroke-dasharray="none" opacity="1.0" fill="#cce5ff"/><g id="ProcessOnG1109" transform="matrix(1.0,0.0,0.0,1.0,10.0,56.725828729281716)"><text id="ProcessOnText1110" fill="#000000" font-weight="normal" font-style="normal" text-decoration="none" font-family="微软雅黑" text-anchor="middle" font-size="13" x="116.3938968876439" y="13.325">支付服务</text></g></g><g id="ProcessOnG1111" transform="matrix(1.0,0.0,0.0,1.0,298.3761021451534,565.6137750474148)" opacity="1.0"><path id="ProcessOnPath1112" d="M0.0 0.0L111.46000193440527 0.0L111.46000193440527 36.474107363733765L0.0 36.474107363733765Z" stroke="#323232" stroke-width="2.0" stroke-dasharray="none" opacity="1.0" fill="#ffffff"/><g id="ProcessOnG1113" transform="matrix(1.0,0.0,0.0,1.0,10.0,10.112053681866882)"><text id="ProcessOnText1114" fill="#000000" font-weight="normal" font-style="normal" text-decoration="none" font-family="微软雅黑" text-anchor="middle" font-size="13" x="44.730000967202635" y="13.325">广告图服务</text></g></g><g id="ProcessOnG1115" transform="matrix(1.0,0.0,0.0,1.0,298.3761021451534,632.6137750474148)" opacity="1.0"><path id="ProcessOnPath1116" d="M0.0 0.0L111.46000193440527 0.0L111.46000193440527 36.474107363733765L0.0 36.474107363733765Z" stroke="#323232" stroke-width="2.0" stroke-dasharray="none" opacity="1.0" fill="#ffffff"/><g id="ProcessOnG1117" transform="matrix(1.0,0.0,0.0,1.0,10.0,10.112053681866882)"><text id="ProcessOnText1118" fill="#000000" font-weight="normal" font-style="normal" text-decoration="none" font-family="微软雅黑" text-anchor="middle" font-size="13" x="44.730000967202635" y="13.325">文章服务</text></g></g><g id="ProcessOnG1119" transform="matrix(1.0,0.0,0.0,1.0,758.3761021451535,422.61377504741483)" opacity="1.0"><path id="ProcessOnPath1120" d="M0.0 0.0L111.46000193440527 0.0L111.46000193440527 36.474107363733765L0.0 36.474107363733765Z" stroke="#323232" stroke-width="2.0" stroke-dasharray="none" opacity="1.0" fill="#ffffff"/><g id="ProcessOnG1121" transform="matrix(1.0,0.0,0.0,1.0,10.0,10.112053681866882)"><text id="ProcessOnText1122" fill="#000000" font-weight="normal" font-style="normal" text-decoration="none" font-family="微软雅黑" text-anchor="middle" font-size="13" x="44.730000967202635" y="13.325">账号服务</text></g></g><g id="ProcessOnG1123" transform="matrix(1.0,0.0,0.0,1.0,758.3761021451535,472.61377504741483)" opacity="1.0"><path id="ProcessOnPath1124" d="M0.0 0.0L111.46000193440527 0.0L111.46000193440527 36.474107363733765L0.0 36.474107363733765Z" stroke="#323232" stroke-width="2.0" stroke-dasharray="none" opacity="1.0" fill="#ffffff"/><g id="ProcessOnG1125" transform="matrix(1.0,0.0,0.0,1.0,10.0,10.112053681866882)"><text id="ProcessOnText1126" fill="#000000" font-weight="normal" font-style="normal" text-decoration="none" font-family="微软雅黑" text-anchor="middle" font-size="13" x="44.730000967202635" y="13.325">消息服务</text></g></g><g id="ProcessOnG1127" transform="matrix(1.0,0.0,0.0,1.0,758.3761021451535,562.6137750474148)" opacity="1.0"><path id="ProcessOnPath1128" d="M0.0 0.0L111.46000193440527 0.0L111.46000193440527 36.474107363733765L0.0 36.474107363733765Z" stroke="#323232" stroke-width="2.0" stroke-dasharray="none" opacity="1.0" fill="#ffffff"/><g id="ProcessOnG1129" transform="matrix(1.0,0.0,0.0,1.0,10.0,10.112053681866882)"><text id="ProcessOnText1130" fill="#000000" font-weight="normal" font-style="normal" text-decoration="none" font-family="微软雅黑" text-anchor="middle" font-size="13" x="44.730000967202635" y="13.325">图片服务</text></g></g><g id="ProcessOnG1131" transform="matrix(1.0,0.0,0.0,1.0,758.3761021451535,612.6137750474148)" opacity="1.0"><path id="ProcessOnPath1132" d="M0.0 0.0L111.46000193440527 0.0L111.46000193440527 36.474107363733765L0.0 36.474107363733765Z" stroke="#323232" stroke-width="2.0" stroke-dasharray="none" opacity="1.0" fill="#ffffff"/><g id="ProcessOnG1133" transform="matrix(1.0,0.0,0.0,1.0,10.0,10.112053681866882)"><text id="ProcessOnText1134" fill="#000000" font-weight="normal" font-style="normal" text-decoration="none" font-family="微软雅黑" text-anchor="middle" font-size="13" x="44.730000967202635" y="13.325">公众号服务</text></g></g><g id="ProcessOnG1135"><path id="ProcessOnPath1136" d="M401.4192733708792 174.99999999999997L401.4192733708792 193.49999999999997L401.4192733708792 193.49999999999997L401.4192733708792 196.76393202250017" stroke="#323232" stroke-width="2.0" stroke-dasharray="none" fill="none" marker-end="url(#ProcessOnMarker1137)"/></g><g id="ProcessOnG1139"><path id="ProcessOnPath1140" d="M755.1349995163987 174.99999999999997L755.1349995163987 239.5L574.2122062247122 239.5L574.2122062247122 288.7639320225002" stroke="#323232" stroke-width="2.0" stroke-dasharray="none" fill="none" marker-end="url(#ProcessOnMarker1141)"/></g><g id="ProcessOnG1143"><path id="ProcessOnPath1144" d="M401.4192733708792 259.0L401.4192733708792 281.5L574.2122062247122 281.5L574.2122062247122 288.7639320225002" stroke="#323232" stroke-width="2.0" stroke-dasharray="none" fill="none" marker-end="url(#ProcessOnMarker1145)"/></g></g></g></svg>