<svg xmlns="http://www.w3.org/2000/svg" xmlns:xlink="http://www.w3.org/1999/xlink" id="processonSvg1000" viewBox="135.4469182764849 85.99999999999997 799.7652879482274 895.0" width="799.7652879482274" height="895.0"><defs id="ProcessOnDefs1001"><marker id="ProcessOnMarker1126" markerUnits="userSpaceOnUse" orient="auto" markerWidth="16.23606797749979" markerHeight="10.550836550532098" viewBox="-1.0 -1.3763819204711736 16.23606797749979 10.550836550532098" refX="-1.0" refY="3.8990363547948754"><path id="ProcessOnPath1127" d="M12.0 3.8990363547948754L0.0 7.798072709589751V0.0Z" stroke="#323232" stroke-width="2.0" fill="#323232" transform="matrix(1.0,0.0,0.0,1.0,0.0,0.0)"/></marker><marker id="ProcessOnMarker1130" markerUnits="userSpaceOnUse" orient="auto" markerWidth="16.23606797749979" markerHeight="10.550836550532098" viewBox="-1.0 -1.3763819204711736 16.23606797749979 10.550836550532098" refX="-1.0" refY="3.8990363547948754"><path id="ProcessOnPath1131" d="M12.0 3.8990363547948754L0.0 7.798072709589751V0.0Z" stroke="#323232" stroke-width="2.0" fill="#323232" transform="matrix(1.0,0.0,0.0,1.0,0.0,0.0)"/></marker><marker id="ProcessOnMarker1134" markerUnits="userSpaceOnUse" orient="auto" markerWidth="16.23606797749979" markerHeight="10.550836550532098" viewBox="-1.0 -1.3763819204711736 16.23606797749979 10.550836550532098" refX="-1.0" refY="3.8990363547948754"><path id="ProcessOnPath1135" d="M12.0 3.8990363547948754L0.0 7.798072709589751V0.0Z" stroke="#323232" stroke-width="2.0" fill="#323232" transform="matrix(1.0,0.0,0.0,1.0,0.0,0.0)"/></marker><marker id="ProcessOnMarker1138" markerUnits="userSpaceOnUse" orient="auto" markerWidth="16.23606797749979" markerHeight="10.550836550532098" viewBox="-1.0 -1.3763819204711736 16.23606797749979 10.550836550532098" refX="-1.0" refY="3.8990363547948754"><path id="ProcessOnPath1139" d="M12.0 3.8990363547948754L0.0 7.798072709589751V0.0Z" stroke="#323232" stroke-width="2.0" fill="#323232" transform="matrix(1.0,0.0,0.0,1.0,0.0,0.0)"/></marker><marker id="ProcessOnMarker1142" markerUnits="userSpaceOnUse" orient="auto" markerWidth="16.23606797749979" markerHeight="10.550836550532098" viewBox="-1.0 -1.3763819204711736 16.23606797749979 10.550836550532098" refX="-1.0" refY="3.8990363547948754"><path id="ProcessOnPath1143" d="M12.0 3.8990363547948754L0.0 7.798072709589751V0.0Z" stroke="#323232" stroke-width="2.0" fill="#323232" transform="matrix(1.0,0.0,0.0,1.0,0.0,0.0)"/></marker><marker id="ProcessOnMarker1146" markerUnits="userSpaceOnUse" orient="auto" markerWidth="16.23606797749979" markerHeight="10.550836550532098" viewBox="-1.0 -1.3763819204711736 16.23606797749979 10.550836550532098" refX="-1.0" refY="3.8990363547948754"><path id="ProcessOnPath1147" d="M12.0 3.8990363547948754L0.0 7.798072709589751V0.0Z" stroke="#323232" stroke-width="2.0" fill="#323232" transform="matrix(1.0,0.0,0.0,1.0,0.0,0.0)"/></marker><marker id="ProcessOnMarker1150" markerUnits="userSpaceOnUse" orient="auto" markerWidth="16.23606797749979" markerHeight="10.550836550532098" viewBox="-1.0 -1.3763819204711736 16.23606797749979 10.550836550532098" refX="-1.0" refY="3.8990363547948754"><path id="ProcessOnPath1151" d="M12.0 3.8990363547948754L0.0 7.798072709589751V0.0Z" stroke="#323232" stroke-width="2.0" fill="#323232" transform="matrix(1.0,0.0,0.0,1.0,0.0,0.0)"/></marker><marker id="ProcessOnMarker1154" markerUnits="userSpaceOnUse" orient="auto" markerWidth="16.23606797749979" markerHeight="10.550836550532098" viewBox="-1.0 -1.3763819204711736 16.23606797749979 10.550836550532098" refX="-1.0" refY="3.8990363547948754"><path id="ProcessOnPath1155" d="M12.0 3.8990363547948754L0.0 7.798072709589751V0.0Z" stroke="#323232" stroke-width="2.0" fill="#323232" transform="matrix(1.0,0.0,0.0,1.0,0.0,0.0)"/></marker><marker id="ProcessOnMarker1158" markerUnits="userSpaceOnUse" orient="auto" markerWidth="16.23606797749979" markerHeight="10.550836550532098" viewBox="-1.0 -1.3763819204711736 16.23606797749979 10.550836550532098" refX="-1.0" refY="3.8990363547948754"><path id="ProcessOnPath1159" d="M12.0 3.8990363547948754L0.0 7.798072709589751V0.0Z" stroke="#323232" stroke-width="2.0" fill="#323232" transform="matrix(1.0,0.0,0.0,1.0,0.0,0.0)"/></marker></defs><g id="ProcessOnG1002"><path id="ProcessOnPath1003" d="M135.4469182764849 85.99999999999997H935.2122062247123V981.0H135.4469182764849V86.0Z" fill="#ffffff"/><g id="ProcessOnG1004"><g id="ProcessOnG1005" transform="matrix(1.0,0.0,0.0,1.0,260.21220622471213,832.5152089227224)" opacity="1.0"><path id="ProcessOnPath1006" d="M0.0 4.0Q0.0 0.0 4.0 0.0L618.0000000000001 0.0Q622.0000000000001 0.0 622.0000000000001 4.0L622.0000000000001 124.48479107727758Q622.0000000000001 128.48479107727758 618.0000000000001 128.48479107727758L4.0 128.48479107727758Q0.0 128.48479107727758 0.0 124.48479107727758Z" stroke="#323232" stroke-width="2.0" stroke-dasharray="none" opacity="1.0" fill="#9999ff"/></g><g id="ProcessOnG1007" transform="matrix(1.0,0.0,0.0,1.0,213.42449544842435,797.7016574585634)" opacity="1.0"><path id="ProcessOnPath1008" d="M0.0 10.384878600859436L690.5530817235151 10.384878600859436" stroke="#888888" stroke-width="1.0" stroke-dasharray="5.0 2.0" opacity="1.0" fill="none"/><path id="ProcessOnPath1009" d="M0.0 0.0L690.5530817235151 0.0L690.5530817235151 20.76975720171887L0.0 20.76975720171887Z" stroke="#888888" stroke-width="0.0" stroke-dasharray="0.0 0.0" opacity="1.0" fill="none"/></g><g id="ProcessOnG1010" transform="matrix(1.0,0.0,0.0,1.0,212.44691827648495,185.2302427982811)" opacity="1.0"><path id="ProcessOnPath1011" d="M0.0 10.384878600859436L690.5530817235151 10.384878600859436" stroke="#888888" stroke-width="1.0" stroke-dasharray="5.0 2.0" opacity="1.0" fill="none"/><path id="ProcessOnPath1012" d="M0.0 0.0L690.5530817235151 0.0L690.5530817235151 20.76975720171887L0.0 20.76975720171887Z" stroke="#888888" stroke-width="0.0" stroke-dasharray="0.0 0.0" opacity="1.0" fill="none"/></g><g id="ProcessOnG1013" transform="matrix(1.0,0.0,0.0,1.0,263.2122062247121,105.99999999999997)" opacity="1.0"><path id="ProcessOnPath1014" d="M0.0 4.0Q0.0 0.0 4.0 0.0L272.4141342923342 0.0Q276.4141342923342 0.0 276.4141342923342 4.0L276.4141342923342 45.0Q276.4141342923342 49.0 272.4141342923342 49.0L4.0 49.0Q0.0 49.0 0.0 45.0Z" stroke="#323232" stroke-width="2.0" stroke-dasharray="none" opacity="1.0" fill="#99ffcc"/><g id="ProcessOnG1015" transform="matrix(1.0,0.0,0.0,1.0,10.0,16.375)"><text id="ProcessOnText1016" fill="#000000" font-weight="normal" font-style="normal" text-decoration="none" font-family="微软雅黑" text-anchor="middle" font-size="13" x="127.2070671461671" y="13.325">APP</text></g></g><g id="ProcessOnG1017" transform="matrix(1.0,0.0,0.0,1.0,155.4469182764849,481.7576044613613)" opacity="1.0"><path id="ProcessOnPath1018" d="M0.0 0.0L92.92024962397035 0.0L92.92024962397035 42.18644853584079L0.0 42.18644853584079Z" stroke="#323232" stroke-width="0.0" stroke-dasharray="none" opacity="1.0" fill="none"/><g id="ProcessOnG1019" transform="matrix(1.0,0.0,0.0,1.0,0.0,12.968224267920395)"><text id="ProcessOnText1020" fill="#000000" font-weight="normal" font-style="normal" text-decoration="none" font-family="微软雅黑" text-anchor="middle" font-size="13" x="45.460124811985175" y="13.325">业务层</text></g></g><g id="ProcessOnG1021" transform="matrix(1.0,0.0,0.0,1.0,157.44691827648495,129.40677573207958)" opacity="1.0"><path id="ProcessOnPath1022" d="M0.0 0.0L92.92024962397035 0.0L92.92024962397035 42.18644853584079L0.0 42.18644853584079Z" stroke="#323232" stroke-width="0.0" stroke-dasharray="none" opacity="1.0" fill="none"/><g id="ProcessOnG1023" transform="matrix(1.0,0.0,0.0,1.0,0.0,12.968224267920395)"><text id="ProcessOnText1024" fill="#000000" font-weight="normal" font-style="normal" text-decoration="none" font-family="微软雅黑" text-anchor="middle" font-size="13" x="45.460124811985175" y="13.325">用户层</text></g></g><g id="ProcessOnG1025" transform="matrix(1.0,0.0,0.0,1.0,215.4469182764849,273.2302427982811)" opacity="1.0"><path id="ProcessOnPath1026" d="M0.0 10.384878600859436L690.5530817235151 10.384878600859436" stroke="#888888" stroke-width="1.0" stroke-dasharray="5.0 2.0" opacity="1.0" fill="none"/><path id="ProcessOnPath1027" d="M0.0 0.0L690.5530817235151 0.0L690.5530817235151 20.76975720171887L0.0 20.76975720171887Z" stroke="#888888" stroke-width="0.0" stroke-dasharray="0.0 0.0" opacity="1.0" fill="none"/></g><g id="ProcessOnG1028" transform="matrix(1.0,0.0,0.0,1.0,156.44691827648495,219.52189713122013)" opacity="1.0"><path id="ProcessOnPath1029" d="M0.0 0.0L92.92024962397034 0.0L92.92024962397034 36.47810286877987L0.0 36.47810286877987Z" stroke="#323232" stroke-width="0.0" stroke-dasharray="none" opacity="1.0" fill="none"/><g id="ProcessOnG1030" transform="matrix(1.0,0.0,0.0,1.0,0.0,10.114051434389935)"><text id="ProcessOnText1031" fill="#000000" font-weight="normal" font-style="normal" text-decoration="none" font-family="微软雅黑" text-anchor="middle" font-size="13" x="45.46012481198517" y="13.325">网关层</text></g></g><g id="ProcessOnG1032" transform="matrix(1.0,0.0,0.0,1.0,263.2122062247121,213.99999999999997)" opacity="1.0"><path id="ProcessOnPath1033" d="M0.0 4.0Q0.0 0.0 4.0 0.0L618.0000000000001 0.0Q622.0000000000001 0.0 622.0000000000001 4.0L622.0000000000001 47.521897131220214Q622.0000000000001 51.521897131220214 618.0000000000001 51.521897131220214L4.0 51.521897131220214Q0.0 51.521897131220214 0.0 47.521897131220214Z" stroke="#323232" stroke-width="2.0" stroke-dasharray="none" opacity="1.0" fill="#ffcc99"/><g id="ProcessOnG1034" transform="matrix(1.0,0.0,0.0,1.0,10.0,17.635948565610107)"><text id="ProcessOnText1035" fill="#000000" font-weight="normal" font-style="normal" text-decoration="none" font-family="微软雅黑" text-anchor="middle" font-size="13" x="300.00000000000006" y="13.325">API网关</text></g></g><g id="ProcessOnG1036" transform="matrix(1.0,0.0,0.0,1.0,157.4469182764849,878.6643801934409)" opacity="1.0"><path id="ProcessOnPath1037" d="M0.0 0.0L92.92024962397035 0.0L92.92024962397035 42.18644853584079L0.0 42.18644853584079Z" stroke="#323232" stroke-width="0.0" stroke-dasharray="none" opacity="1.0" fill="none"/><g id="ProcessOnG1038" transform="matrix(1.0,0.0,0.0,1.0,0.0,12.968224267920395)"><text id="ProcessOnText1039" fill="#000000" font-weight="normal" font-style="normal" text-decoration="none" font-family="微软雅黑" text-anchor="middle" font-size="13" x="45.460124811985175" y="13.325">数据库</text></g></g><g id="ProcessOnG1040" transform="matrix(-1.8369701987210297E-16,-1.0,1.0,-1.8369701987210297E-16,344.50958630079,942.1159899752416)" opacity="1.0"><path id="ProcessOnPath1041" d="M12.407515654164136 0.0L73.64241578573709 0.0C85.1915951846765 0.0 85.1915951846765 54.44613145214299 73.64241578573709 54.44613145214299L12.407515654164136 54.44613145214299C-4.135838551388046 54.44613145214299 -4.135838551388046 0.0 12.407515654164136 0.0ZM73.64241578573709 0.0C62.29947173320729 0.0 62.29947173320729 54.44613145214299 73.64241578573709 54.44613145214299C62.29947173320729 54.44613145214299 62.29947173320729 0.0 73.64241578573709 0.0" stroke="#323232" stroke-width="2.0" stroke-dasharray="none" opacity="1.0" fill="#cfcfcf"/><g id="ProcessOnG1042" transform="matrix(1.0,0.0,0.0,1.0,0.0,19.098065726071496)"><text id="ProcessOnText1043" fill="#000000" font-weight="normal" font-style="normal" text-decoration="none" font-family="微软雅黑" text-anchor="middle" font-size="13" x="32.08670841110437" y="13.325">My SQL</text></g></g><g id="ProcessOnG1044" transform="matrix(1.0,0.0,0.0,1.0,263.2122062247121,686.6137750474147)" opacity="1.0"><path id="ProcessOnPath1045" d="M0.0 4.0Q0.0 0.0 4.0 0.0L618.0000000000002 0.0Q622.0000000000002 0.0 622.0000000000002 4.0L622.0000000000002 93.38622495258528Q622.0000000000002 97.38622495258528 618.0000000000002 97.38622495258528L4.0 97.38622495258528Q0.0 97.38622495258528 0.0 93.38622495258528Z" stroke="#323232" stroke-width="2.0" stroke-dasharray="none" opacity="1.0" fill="#ff9999"/><g id="ProcessOnG1046" transform="matrix(1.0,0.0,0.0,1.0,10.0,40.56811247629264)"><text id="ProcessOnText1047" fill="#000000" font-weight="normal" font-style="normal" text-decoration="none" font-family="微软雅黑" text-anchor="middle" font-size="13" x="300.0000000000001" y="13.325">基础服务</text></g></g><g id="ProcessOnG1048" transform="matrix(-1.8369701987210297E-16,-1.0,1.0,-1.8369701987210297E-16,550.4779705841104,942.1159899752416)" opacity="1.0"><path id="ProcessOnPath1049" d="M12.407515654164136 0.0L73.64241578573709 0.0C85.1915951846765 0.0 85.1915951846765 54.44613145214299 73.64241578573709 54.44613145214299L12.407515654164136 54.44613145214299C-4.135838551388046 54.44613145214299 -4.135838551388046 0.0 12.407515654164136 0.0ZM73.64241578573709 0.0C62.29947173320729 0.0 62.29947173320729 54.44613145214299 73.64241578573709 54.44613145214299C62.29947173320729 54.44613145214299 62.29947173320729 0.0 73.64241578573709 0.0" stroke="#323232" stroke-width="2.0" stroke-dasharray="none" opacity="1.0" fill="#cfcfcf"/><g id="ProcessOnG1050" transform="matrix(1.0,0.0,0.0,1.0,0.0,19.098065726071496)"><text id="ProcessOnText1051" fill="#000000" font-weight="normal" font-style="normal" text-decoration="none" font-family="微软雅黑" text-anchor="middle" font-size="13" x="32.08670841110437" y="13.325">My SQL</text></g></g><g id="ProcessOnG1052" transform="matrix(-1.8369701987210297E-16,-1.0,1.0,-1.8369701987210297E-16,750.491200523552,938.1159899752416)" opacity="1.0"><path id="ProcessOnPath1053" d="M12.407515654164136 0.0L73.64241578573709 0.0C85.1915951846765 0.0 85.1915951846765 54.44613145214299 73.64241578573709 54.44613145214299L12.407515654164136 54.44613145214299C-4.135838551388046 54.44613145214299 -4.135838551388046 0.0 12.407515654164136 0.0ZM73.64241578573709 0.0C62.29947173320729 0.0 62.29947173320729 54.44613145214299 73.64241578573709 54.44613145214299C62.29947173320729 54.44613145214299 62.29947173320729 0.0 73.64241578573709 0.0" stroke="#323232" stroke-width="2.0" stroke-dasharray="none" opacity="1.0" fill="#cfcfcf"/><g id="ProcessOnG1054" transform="matrix(1.0,0.0,0.0,1.0,0.0,19.098065726071496)"><text id="ProcessOnText1055" fill="#000000" font-weight="normal" font-style="normal" text-decoration="none" font-family="微软雅黑" text-anchor="middle" font-size="13" x="32.08670841110437" y="13.325">Mongo</text></g></g><g id="ProcessOnG1056" transform="matrix(1.0,0.0,0.0,1.0,627.7411026287548,105.99999999999997)" opacity="1.0"><path id="ProcessOnPath1057" d="M0.0 4.0Q0.0 0.0 4.0 0.0L247.7300009672026 0.0Q251.7300009672026 0.0 251.7300009672026 4.0L251.7300009672026 45.0Q251.7300009672026 49.0 247.7300009672026 49.0L4.0 49.0Q0.0 49.0 0.0 45.0Z" stroke="#323232" stroke-width="2.0" stroke-dasharray="none" opacity="1.0" fill="#99ffcc"/><g id="ProcessOnG1058" transform="matrix(1.0,0.0,0.0,1.0,10.0,16.375)"><text id="ProcessOnText1059" fill="#000000" font-weight="normal" font-style="normal" text-decoration="none" font-family="微软雅黑" text-anchor="middle" font-size="13" x="114.8650004836013" y="13.325">HTML5(Angular)</text></g></g><g id="ProcessOnG1060" transform="matrix(1.0,0.0,0.0,1.0,267.2122062247121,318.9999999999998)" opacity="1.0"><path id="ProcessOnPath1061" d="M0.0 4.0Q0.0 0.0 4.0 0.0L177.7877937752878 0.0Q181.7877937752878 0.0 181.7877937752878 4.0L181.7877937752878 135.70165745856377Q181.7877937752878 139.70165745856377 177.7877937752878 139.70165745856377L4.0 139.70165745856377Q0.0 139.70165745856377 0.0 135.70165745856377Z" stroke="#323232" stroke-width="2.0" stroke-dasharray="none" opacity="1.0" fill="#cce5ff"/><g id="ProcessOnG1062" transform="matrix(1.0,0.0,0.0,1.0,10.0,61.725828729281886)"><text id="ProcessOnText1063" fill="#000000" font-weight="normal" font-style="normal" text-decoration="none" font-family="微软雅黑" text-anchor="middle" font-size="13" x="79.8938968876439" y="13.325">APP服务</text></g></g><g id="ProcessOnG1064" transform="matrix(1.0,0.0,0.0,1.0,302.3761021451534,336.61377504741483)" opacity="1.0"><path id="ProcessOnPath1065" d="M0.0 0.0L111.46000193440527 0.0L111.46000193440527 36.474107363733765L0.0 36.474107363733765Z" stroke="#323232" stroke-width="2.0" stroke-dasharray="none" opacity="1.0" fill="#ffffff"/><g id="ProcessOnG1066" transform="matrix(1.0,0.0,0.0,1.0,10.0,10.112053681866882)"><text id="ProcessOnText1067" fill="#000000" font-weight="normal" font-style="normal" text-decoration="none" font-family="微软雅黑" text-anchor="middle" font-size="13" x="44.730000967202635" y="13.325">用户服务</text></g></g><g id="ProcessOnG1068" transform="matrix(1.0,0.0,0.0,1.0,302.37610214515337,406.61377504741483)" opacity="1.0"><path id="ProcessOnPath1069" d="M0.0 0.0L111.46000193440527 0.0L111.46000193440527 36.474107363733765L0.0 36.474107363733765Z" stroke="#323232" stroke-width="2.0" stroke-dasharray="none" opacity="1.0" fill="#ffffff"/><g id="ProcessOnG1070" transform="matrix(1.0,0.0,0.0,1.0,10.0,10.112053681866882)"><text id="ProcessOnText1071" fill="#000000" font-weight="normal" font-style="normal" text-decoration="none" font-family="微软雅黑" text-anchor="middle" font-size="13" x="44.730000967202635" y="13.325">设备服务</text></g></g><g id="ProcessOnG1072" transform="matrix(1.0,0.0,0.0,1.0,267.2122062247121,508.7016574585633)" opacity="1.0"><path id="ProcessOnPath1073" d="M0.0 4.0Q0.0 0.0 4.0 0.0L177.7877937752878 0.0Q181.7877937752878 0.0 181.7877937752878 4.0L181.7877937752878 125.70165745856355Q181.7877937752878 129.70165745856355 177.7877937752878 129.70165745856355L4.0 129.70165745856355Q0.0 129.70165745856355 0.0 125.70165745856355Z" stroke="#323232" stroke-width="2.0" stroke-dasharray="none" opacity="1.0" fill="#cce5ff"/><g id="ProcessOnG1074" transform="matrix(1.0,0.0,0.0,1.0,10.0,56.72582872928177)"><text id="ProcessOnText1075" fill="#000000" font-weight="normal" font-style="normal" text-decoration="none" font-family="微软雅黑" text-anchor="middle" font-size="13" x="79.8938968876439" y="13.325">内容服务</text></g></g><g id="ProcessOnG1076" transform="matrix(1.0,0.0,0.0,1.0,626.2122062247122,321.0)" opacity="1.0"><path id="ProcessOnPath1077" d="M0.0 4.0Q0.0 0.0 4.0 0.0L250.7877937752878 0.0Q254.7877937752878 0.0 254.7877937752878 4.0L254.7877937752878 131.70165745856332Q254.7877937752878 135.70165745856332 250.7877937752878 135.70165745856332L4.0 135.70165745856332Q0.0 135.70165745856332 0.0 131.70165745856332Z" stroke="#323232" stroke-width="2.0" stroke-dasharray="none" opacity="1.0" fill="#cce5ff"/><g id="ProcessOnG1078" transform="matrix(1.0,0.0,0.0,1.0,10.0,59.72582872928166)"><text id="ProcessOnText1079" fill="#000000" font-weight="normal" font-style="normal" text-decoration="none" font-family="微软雅黑" text-anchor="middle" font-size="13" x="116.3938968876439" y="13.325">电商服务</text></g></g><g id="ProcessOnG1080" transform="matrix(1.0,0.0,0.0,1.0,633.3761021451535,335.61377504741483)" opacity="1.0"><path id="ProcessOnPath1081" d="M0.0 0.0L111.46000193440527 0.0L111.46000193440527 36.474107363733765L0.0 36.474107363733765Z" stroke="#323232" stroke-width="2.0" stroke-dasharray="none" opacity="1.0" fill="#ffffff"/><g id="ProcessOnG1082" transform="matrix(1.0,0.0,0.0,1.0,10.0,10.112053681866882)"><text id="ProcessOnText1083" fill="#000000" font-weight="normal" font-style="normal" text-decoration="none" font-family="微软雅黑" text-anchor="middle" font-size="13" x="44.730000967202635" y="13.325">商品服务</text></g></g><g id="ProcessOnG1084" transform="matrix(1.0,0.0,0.0,1.0,763.3761021451535,335.61377504741483)" opacity="1.0"><path id="ProcessOnPath1085" d="M0.0 0.0L111.46000193440527 0.0L111.46000193440527 36.474107363733765L0.0 36.474107363733765Z" stroke="#323232" stroke-width="2.0" stroke-dasharray="none" opacity="1.0" fill="#ffffff"/><g id="ProcessOnG1086" transform="matrix(1.0,0.0,0.0,1.0,10.0,10.112053681866882)"><text id="ProcessOnText1087" fill="#000000" font-weight="normal" font-style="normal" text-decoration="none" font-family="微软雅黑" text-anchor="middle" font-size="13" x="44.730000967202635" y="13.325">购物车服务</text></g></g><g id="ProcessOnG1088" transform="matrix(1.0,0.0,0.0,1.0,633.3761021451535,400.61377504741483)" opacity="1.0"><path id="ProcessOnPath1089" d="M0.0 0.0L111.46000193440527 0.0L111.46000193440527 36.474107363733765L0.0 36.474107363733765Z" stroke="#323232" stroke-width="2.0" stroke-dasharray="none" opacity="1.0" fill="#ffffff"/><g id="ProcessOnG1090" transform="matrix(1.0,0.0,0.0,1.0,10.0,10.112053681866882)"><text id="ProcessOnText1091" fill="#000000" font-weight="normal" font-style="normal" text-decoration="none" font-family="微软雅黑" text-anchor="middle" font-size="13" x="44.730000967202635" y="13.325">订单服务</text></g></g><g id="ProcessOnG1092" transform="matrix(1.0,0.0,0.0,1.0,763.3761021451535,400.61377504741483)" opacity="1.0"><path id="ProcessOnPath1093" d="M0.0 0.0L111.46000193440527 0.0L111.46000193440527 36.474107363733765L0.0 36.474107363733765Z" stroke="#323232" stroke-width="2.0" stroke-dasharray="none" opacity="1.0" fill="#ffffff"/><g id="ProcessOnG1094" transform="matrix(1.0,0.0,0.0,1.0,10.0,10.112053681866882)"><text id="ProcessOnText1095" fill="#000000" font-weight="normal" font-style="normal" text-decoration="none" font-family="微软雅黑" text-anchor="middle" font-size="13" x="44.730000967202635" y="13.325">优惠服务</text></g></g><g id="ProcessOnG1096" transform="matrix(1.0,0.0,0.0,1.0,626.2122062247122,509.3154325059784)" opacity="1.0"><path id="ProcessOnPath1097" d="M0.0 4.0Q0.0 0.0 4.0 0.0L250.7877937752878 0.0Q254.7877937752878 0.0 254.7877937752878 4.0L254.7877937752878 125.70165745856343Q254.7877937752878 129.70165745856343 250.7877937752878 129.70165745856343L4.0 129.70165745856343Q0.0 129.70165745856343 0.0 125.70165745856343Z" stroke="#323232" stroke-width="2.0" stroke-dasharray="none" opacity="1.0" fill="#cce5ff"/><g id="ProcessOnG1098" transform="matrix(1.0,0.0,0.0,1.0,10.0,56.725828729281716)"><text id="ProcessOnText1099" fill="#000000" font-weight="normal" font-style="normal" text-decoration="none" font-family="微软雅黑" text-anchor="middle" font-size="13" x="116.3938968876439" y="13.325">支付服务</text></g></g><g id="ProcessOnG1100" transform="matrix(1.0,0.0,0.0,1.0,302.3761021451534,520.3154325059784)" opacity="1.0"><path id="ProcessOnPath1101" d="M0.0 0.0L111.46000193440527 0.0L111.46000193440527 36.474107363733765L0.0 36.474107363733765Z" stroke="#323232" stroke-width="2.0" stroke-dasharray="none" opacity="1.0" fill="#ffffff"/><g id="ProcessOnG1102" transform="matrix(1.0,0.0,0.0,1.0,10.0,10.112053681866882)"><text id="ProcessOnText1103" fill="#000000" font-weight="normal" font-style="normal" text-decoration="none" font-family="微软雅黑" text-anchor="middle" font-size="13" x="44.730000967202635" y="13.325">广告图服务</text></g></g><g id="ProcessOnG1104" transform="matrix(1.0,0.0,0.0,1.0,302.3761021451534,590.3154325059784)" opacity="1.0"><path id="ProcessOnPath1105" d="M0.0 0.0L111.46000193440527 0.0L111.46000193440527 36.474107363733765L0.0 36.474107363733765Z" stroke="#323232" stroke-width="2.0" stroke-dasharray="none" opacity="1.0" fill="#ffffff"/><g id="ProcessOnG1106" transform="matrix(1.0,0.0,0.0,1.0,10.0,10.112053681866882)"><text id="ProcessOnText1107" fill="#000000" font-weight="normal" font-style="normal" text-decoration="none" font-family="微软雅黑" text-anchor="middle" font-size="13" x="44.730000967202635" y="13.325">文章服务</text></g></g><g id="ProcessOnG1108" transform="matrix(1.0,0.0,0.0,1.0,280.21220622471213,720.0878824111485)" opacity="1.0"><path id="ProcessOnPath1109" d="M0.0 0.0L111.46000193440527 0.0L111.46000193440527 36.474107363733765L0.0 36.474107363733765Z" stroke="#323232" stroke-width="2.0" stroke-dasharray="none" opacity="1.0" fill="#ffffff"/><g id="ProcessOnG1110" transform="matrix(1.0,0.0,0.0,1.0,10.0,10.112053681866882)"><text id="ProcessOnText1111" fill="#000000" font-weight="normal" font-style="normal" text-decoration="none" font-family="微软雅黑" text-anchor="middle" font-size="13" x="44.730000967202635" y="13.325">账号服务</text></g></g><g id="ProcessOnG1112" transform="matrix(1.0,0.0,0.0,1.0,413.8361040795587,720.0878824111485)" opacity="1.0"><path id="ProcessOnPath1113" d="M0.0 0.0L111.46000193440527 0.0L111.46000193440527 36.474107363733765L0.0 36.474107363733765Z" stroke="#323232" stroke-width="2.0" stroke-dasharray="none" opacity="1.0" fill="#ffffff"/><g id="ProcessOnG1114" transform="matrix(1.0,0.0,0.0,1.0,10.0,10.112053681866882)"><text id="ProcessOnText1115" fill="#000000" font-weight="normal" font-style="normal" text-decoration="none" font-family="微软雅黑" text-anchor="middle" font-size="13" x="44.730000967202635" y="13.325">消息服务</text></g></g><g id="ProcessOnG1116" transform="matrix(1.0,0.0,0.0,1.0,616.3761021451535,717.6137750474147)" opacity="1.0"><path id="ProcessOnPath1117" d="M0.0 0.0L111.46000193440527 0.0L111.46000193440527 36.474107363733765L0.0 36.474107363733765Z" stroke="#323232" stroke-width="2.0" stroke-dasharray="none" opacity="1.0" fill="#ffffff"/><g id="ProcessOnG1118" transform="matrix(1.0,0.0,0.0,1.0,10.0,10.112053681866882)"><text id="ProcessOnText1119" fill="#000000" font-weight="normal" font-style="normal" text-decoration="none" font-family="微软雅黑" text-anchor="middle" font-size="13" x="44.730000967202635" y="13.325">图片服务</text></g></g><g id="ProcessOnG1120" transform="matrix(1.0,0.0,0.0,1.0,758.3761021451535,717.0698338418405)" opacity="1.0"><path id="ProcessOnPath1121" d="M0.0 0.0L111.46000193440527 0.0L111.46000193440527 36.474107363733765L0.0 36.474107363733765Z" stroke="#323232" stroke-width="2.0" stroke-dasharray="none" opacity="1.0" fill="#ffffff"/><g id="ProcessOnG1122" transform="matrix(1.0,0.0,0.0,1.0,10.0,10.112053681866882)"><text id="ProcessOnText1123" fill="#000000" font-weight="normal" font-style="normal" text-decoration="none" font-family="微软雅黑" text-anchor="middle" font-size="13" x="44.730000967202635" y="13.325">公众号服务</text></g></g><g id="ProcessOnG1124"><path id="ProcessOnPath1125" d="M626.2122062247122 388.85082872928166L537.6061031123561 388.85082872928166L537.6061031123561 388.85082872928166L464.23606797749966 388.85082872928166" stroke="#323232" stroke-width="2.0" stroke-dasharray="none" fill="none" marker-end="url(#ProcessOnMarker1126)"/></g><g id="ProcessOnG1128"><path id="ProcessOnPath1129" d="M448.9999999999999 573.552486187845L478.9999999999999 573.552486187845L478.9999999999999 291.0L753.6061031123561 291.0L753.6061031123561 305.7639320225002" stroke="#323232" stroke-width="2.0" stroke-dasharray="none" fill="none" marker-end="url(#ProcessOnMarker1130)"/></g><g id="ProcessOnG1132"><path id="ProcessOnPath1133" d="M358.106103112356 508.7016574585633L358.106103112356 483.70165745856343L358.106103112356 483.70165745856343L358.106103112356 473.9377254360633" stroke="#323232" stroke-width="2.0" stroke-dasharray="none" fill="none" marker-end="url(#ProcessOnMarker1134)"/></g><g id="ProcessOnG1136"><path id="ProcessOnPath1137" d="M753.6061031123561 456.7016574585633L753.6061031123561 483.00854498227085L753.6061031123561 483.00854498227085L753.6061031123561 494.0793645284786" stroke="#323232" stroke-width="2.0" stroke-dasharray="none" fill="none" marker-end="url(#ProcessOnMarker1138)"/></g><g id="ProcessOnG1140"><path id="ProcessOnPath1141" d="M267.2122062247121 388.85082872928166L233.21220622471208 388.85082872928166L233.21220622471208 735.3068875237074L247.97613824721228 735.3068875237074" stroke="#323232" stroke-width="2.0" stroke-dasharray="none" fill="none" marker-end="url(#ProcessOnMarker1142)"/></g><g id="ProcessOnG1144"><path id="ProcessOnPath1145" d="M881.0 388.85082872928166L915.2122062247123 388.85082872928166L915.2122062247123 735.3068875237074L900.4482742022121 735.3068875237074" stroke="#323232" stroke-width="2.0" stroke-dasharray="none" fill="none" marker-end="url(#ProcessOnMarker1146)"/></g><g id="ProcessOnG1148"><path id="ProcessOnPath1149" d="M358.106103112356 638.4033149171269L358.106103112356 662.5085449822708L574.2122062247122 662.5085449822708L574.2122062247122 671.3777070699149" stroke="#323232" stroke-width="2.0" stroke-dasharray="none" fill="none" marker-end="url(#ProcessOnMarker1150)"/></g><g id="ProcessOnG1152"><path id="ProcessOnPath1153" d="M401.4192733708792 154.99999999999997L401.4192733708792 184.49999999999997L574.2122062247122 184.49999999999997L574.2122062247122 198.76393202250017" stroke="#323232" stroke-width="2.0" stroke-dasharray="none" fill="none" marker-end="url(#ProcessOnMarker1154)"/></g><g id="ProcessOnG1156"><path id="ProcessOnPath1157" d="M753.6061031123561 154.99999999999997L753.6061031123561 184.49999999999997L574.2122062247122 184.49999999999997L574.2122062247122 198.76393202250017" stroke="#323232" stroke-width="2.0" stroke-dasharray="none" fill="none" marker-end="url(#ProcessOnMarker1158)"/></g></g></g></svg>